<?xml version="1.0" encoding="UTF-8"?>
<svg width="13px" height="13px" viewBox="0 0 13 13" version="1.1" xmlns="http://www.w3.org/2000/svg" xmlns:xlink="http://www.w3.org/1999/xlink">
    <title>forbid</title>
    <g id="4试验执行" stroke="none" stroke-width="1" fill="none" fill-rule="evenodd">
        <g id="1-2试验执行-初始页面（全局视角）-天气设置+显示" transform="translate(-1633.000000, -683.000000)">
            <g id="右上角操作" transform="translate(1578.000000, 128.000000)">
                <g id="编组-19" transform="translate(16.000000, 24.000000)">
                    <g id="编组-3备份-4" transform="translate(0.000000, 472.000000)">
                        <g id="编组-3" transform="translate(0.000000, 30.000000)">
                            <g id="car_sample" transform="translate(17.000000, 7.000000)">
                                <g id="禁飞区域" transform="translate(0.459016, 0.000000)">
                                    <g id="forbid" transform="translate(22.032787, 22.400000)">
                                        <rect id="矩形" x="0" y="0" width="11.0163934" height="11.2"></rect>
                                        <path d="M5.50819672,0 C8.55028977,-5.58823427e-16 11.0163934,2.46610367 11.0163934,5.50819672 L11.0163934,5.69180328 C11.0163934,6.98841094 10.5683878,8.18038127 9.81872766,9.12136305 L9.65367609,9.31959595 L9.64643576,9.32718328 C9.51046051,9.48184491 9.3659522,9.62882122 9.21364662,9.76737646 L9.16681569,9.8145707 C8.19121368,10.6756485 6.91093963,11.2 5.50819672,11.2 C2.46610367,11.2 2.14890579e-15,8.73389633 0,5.69180328 L0,5.50819672 C5.15629468e-16,2.46610367 2.46610367,5.58823427e-16 5.50819672,0 Z M1.75460862,2.27901664 C1.05806271,3.08566263 0.617141183,4.11921474 0.557706199,5.2538108 L0.550819672,5.51737705 L0.550819672,5.68262295 C0.550819672,8.42050669 2.77031298,10.64 5.50819672,10.64 C6.75801663,10.64 7.89981215,10.1774926 8.77176487,9.41429611 L7.084,7.699 L6.4805927,7.7 L5.8937432,7.08721312 C5.67538059,7.10098361 5.46384182,7.08721312 5.24547921,7.05278688 C5.30689369,6.94262295 5.30689369,6.71540984 5.24547921,6.59836066 C5.30006986,6.59147541 5.34783668,6.58459016 5.40242733,6.57770492 L5.40242733,6.57770492 L5.35466051,6.52262295 C5.14994557,6.53639344 4.95205446,6.52262295 4.74733952,6.48819672 C4.808754,6.37803278 4.808754,6.15081967 4.74733952,6.03377049 C4.78828251,6.03377049 4.8292255,6.02688524 4.87016849,6.02 L4.87016849,6.02 L4.75416335,5.89606558 L4.5903914,5.80655738 L2.95949568,5.80655738 C2.461356,5.77901639 2.10651676,5.71016394 2.06557377,5.53114754 C2.06557377,5.30393443 2.28393638,5.15934427 2.61148029,5.04229508 C2.66607094,5.09737705 2.73430925,5.13180329 2.80254756,5.15245902 L2.80254756,5.15245902 L2.86396204,5.04229508 C2.81619522,5.02852459 2.75478074,5.00098361 2.72748542,4.98032787 C2.74795691,4.91836066 2.89125737,4.84262295 2.95949568,4.83573771 L2.95949568,4.83573771 L4.268,4.835 L1.75460862,2.27901664 Z M5.50819672,0.56 C4.25789648,0.56 3.11570368,1.022863 2.24362337,1.78658396 L4.68003609,4.26183132 C4.68843908,4.25446528 4.6974178,4.2504918 4.70639653,4.2504918 C4.73369185,4.2504918 4.74733952,4.27114754 4.76781101,4.30557377 C4.77463485,4.33311476 4.78145868,4.36754098 4.78145868,4.40196721 L4.777,4.357 L4.79343357,4.37468124 L4.79343357,4.37468124 L4.796,4.381 C4.80320218,4.33381403 4.79459455,4.28052869 4.77463485,4.24360656 C4.91793531,4.22295082 5.05441193,4.21606557 5.19088856,4.22295082 C5.18406473,4.21606558 5.1772409,4.20229509 5.1772409,4.18852459 C5.17041706,4.16098361 5.16359323,4.12655738 5.16359323,4.09213115 C5.16359323,4.05770492 5.17041706,4.02327869 5.1772409,3.99573771 C5.18406473,3.97508197 5.20453622,3.95442623 5.22500771,3.95442623 C5.24547921,3.95442623 5.2659507,3.97508197 5.27959837,4.0095082 L5.285,4.041 C5.29537809,4.05413479 5.30463735,4.0628051 5.31204476,4.07173042 L5.316,4.079 L5.30955926,4.01402664 C5.30433476,3.98928279 5.29665795,3.96647541 5.2864222,3.94754099 C5.47066565,3.92 5.64808527,3.92 5.82550488,3.94065573 L6.59659783,3.5 L7.27215715,3.55508197 L7.15615201,3.69967213 L6.91731791,3.69967213 L6.91049408,3.70655737 L6.46694503,4.18852459 L6.43282588,4.22295082 L6.74672212,4.22295082 L6.52153568,4.51213115 L6.29634925,4.51213115 L6.28270159,4.51901639 L6.18034412,4.70491803 L5.114,4.704 L5.242,4.835 L7.49051975,4.83573771 L8.08419308,3.84426229 L8.75292856,3.84426229 L8.57550894,5.02852459 C8.71198557,5.12491803 8.84163837,5.23508197 8.95081967,5.35901639 C8.82799071,5.46229509 8.72563323,5.5242623 8.61645193,5.57245902 L8.61645193,5.57245902 L8.85528603,6.02 L8.41173699,6.02 L7.70205852,5.4347541 L8.38444167,5.4347541 L8.38444167,5.41409836 L7.66793936,5.38655738 L7.66111553,5.44163935 L7.87947814,5.74459016 C7.66793936,5.77213114 7.44957676,5.77901639 7.23121416,5.79967213 L7.23121416,5.79967213 L6.47376886,5.79967213 L6.47376886,5.81344263 L6.429,6.041 L6.502,6.115 L6.55565484,5.84786885 L6.73989829,5.84786885 L6.68530764,6.15770492 L6.543,6.157 L6.577,6.192 L6.65118848,6.19213115 L6.718,6.335 L9.26178482,8.92098336 C9.95833073,8.11433737 10.3992523,7.08078526 10.4586872,5.9461892 L10.4655738,5.68262295 L10.4655738,5.51737705 C10.4655738,2.77949331 8.24608046,0.56 5.50819672,0.56 Z" id="形状结合" fill-opacity="0.85" fill="#FFFFFF" fill-rule="nonzero"></path>
                                    </g>
                                </g>
                            </g>
                        </g>
                    </g>
                </g>
            </g>
        </g>
    </g>
</svg>